<?xml version="1.0" encoding="UTF-8"?>
<svg version="1.1" xmlns="http://www.w3.org/2000/svg" width="819" height="819">
<path d="M0 0 C1.25968597 0.00182281 2.51937195 0.00364563 3.81723022 0.00552368 C22.06639007 0.05000591 39.94903803 0.42693605 58 3.3125 C59.12857422 3.48410645 60.25714844 3.65571289 61.41992188 3.83251953 C117.16883895 12.45372437 171.33381761 32.00384107 219 62.3125 C219.9895166 62.93970947 219.9895166 62.93970947 220.99902344 63.57958984 C238.79676766 74.94909997 255.83056078 87.72677798 271.41796875 101.9765625 C272.82446183 103.24900254 274.23708262 104.5152703 275.6784668 105.74804688 C281.34459804 110.60410918 286.66194529 115.78828208 291.93579102 121.06298828 C293.42641615 122.55143237 294.92487017 124.03167277 296.42382812 125.51171875 C302.00951668 131.06569104 307.18077119 136.74886893 312.07763672 142.92871094 C313.86758052 145.14829581 315.73400802 147.2369669 317.6875 149.3125 C365.86734806 202.97388766 395.19423938 277.34653922 406.25 347.6875 C406.40114258 348.6472876 406.55228516 349.6070752 406.70800781 350.59594727 C407.18599221 353.83043425 407.60423862 357.06686333 408 360.3125 C408.08720306 361.02168579 408.17440613 361.73087158 408.26425171 362.46154785 C410.12481357 378.0736528 410.35964539 393.60352796 410.3125 409.3125 C410.30976578 411.20202896 410.30976578 411.20202896 410.30697632 413.12973022 C410.26249409 431.37889007 409.88556395 449.26153803 407 467.3125 C406.74259033 469.00536133 406.74259033 469.00536133 406.47998047 470.73242188 C397.85877563 526.48133895 378.30865893 580.64631761 348 628.3125 C347.58186035 628.97217773 347.1637207 629.63185547 346.73291016 630.31152344 C335.36340003 648.10926766 322.58572202 665.14306078 308.3359375 680.73046875 C307.06349746 682.13696183 305.7972297 683.54958262 304.56445312 684.9909668 C299.70839082 690.65709804 294.52421792 695.97444529 289.24951172 701.24829102 C287.76106763 702.73891615 286.28082723 704.23737017 284.80078125 705.73632812 C279.24680896 711.32201668 273.56363107 716.49327119 267.38378906 721.39013672 C265.16420419 723.18008052 263.0755331 725.04650802 261 727 C207.33861234 775.17984806 132.96596078 804.50673938 62.625 815.5625 C61.6652124 815.71364258 60.7054248 815.86478516 59.71655273 816.02050781 C56.48206575 816.49849221 53.24563667 816.91673862 50 817.3125 C49.29081421 817.39970306 48.58162842 817.48690613 47.85095215 817.57675171 C32.2388472 819.43731357 16.70897204 819.67214539 1 819.625 C-0.25968597 819.62317719 -1.51937195 819.62135437 -2.81723022 819.61947632 C-21.06639007 819.57499409 -38.94903803 819.19806395 -57 816.3125 C-58.69286133 816.05509033 -58.69286133 816.05509033 -60.41992188 815.79248047 C-116.16883895 807.17127563 -170.33381761 787.62115893 -218 757.3125 C-218.65967773 756.89436035 -219.31935547 756.4762207 -219.99902344 756.04541016 C-237.79676766 744.67590003 -254.83056078 731.89822202 -270.41796875 717.6484375 C-271.82446183 716.37599746 -273.23708262 715.1097297 -274.6784668 713.87695312 C-280.34459804 709.02089082 -285.66194529 703.83671792 -290.93579102 698.56201172 C-292.42641615 697.07356763 -293.92487017 695.59332723 -295.42382812 694.11328125 C-301.00951668 688.55930896 -306.18077119 682.87613107 -311.07763672 676.69628906 C-312.86758052 674.47670419 -314.73400802 672.3880331 -316.6875 670.3125 C-364.86734806 616.65111234 -394.19423938 542.27846078 -405.25 471.9375 C-405.47671387 470.4978186 -405.47671387 470.4978186 -405.70800781 469.02905273 C-406.18599221 465.79456575 -406.60423862 462.55813667 -407 459.3125 C-407.08720306 458.60331421 -407.17440613 457.89412842 -407.26425171 457.16345215 C-409.12481357 441.5513472 -409.35964539 426.02147204 -409.3125 410.3125 C-409.31067719 409.05281403 -409.30885437 407.79312805 -409.30697632 406.49526978 C-409.26249409 388.24610993 -408.88556395 370.36346197 -406 352.3125 C-405.82839355 351.18392578 -405.65678711 350.05535156 -405.47998047 348.89257812 C-396.85877563 293.14366105 -377.30865893 238.97868239 -347 191.3125 C-346.58186035 190.65282227 -346.1637207 189.99314453 -345.73291016 189.31347656 C-334.36340003 171.51573234 -321.58572202 154.48193922 -307.3359375 138.89453125 C-306.06349746 137.48803817 -304.7972297 136.07541738 -303.56445312 134.6340332 C-298.70839082 128.96790196 -293.52421792 123.65055471 -288.24951172 118.37670898 C-286.76106763 116.88608385 -285.28082723 115.38762983 -283.80078125 113.88867188 C-278.24680896 108.30298332 -272.56363107 103.13172881 -266.38378906 98.23486328 C-264.16420419 96.44491948 -262.0755331 94.57849198 -260 92.625 C-206.33861234 44.44515194 -131.96596078 15.11826062 -61.625 4.0625 C-60.1853186 3.83578613 -60.1853186 3.83578613 -58.71655273 3.60449219 C-55.48206575 3.12650779 -52.24563667 2.70826138 -49 2.3125 C-48.29081421 2.22529694 -47.58162842 2.13809387 -46.85095215 2.04824829 C-31.2388472 0.18768643 -15.70897204 -0.04714539 0 0 Z " fill="#1C6C99" transform="translate(409,-0.3125)"/>
<path d="M0 0 C3.245613 1.42074324 5.3626159 3.13762681 7.828125 5.66796875 C8.90513672 6.76141602 8.90513672 6.76141602 10.00390625 7.87695312 C10.74511719 8.63943359 11.48632812 9.40191406 12.25 10.1875 C18.40609833 16.49602156 18.40609833 16.49602156 24.921875 22.42578125 C30.80469942 27.47929286 36.13957366 33.09623386 41.578125 38.6171875 C45.99449439 43.07419833 50.46334759 47.36509673 55.2265625 51.44921875 C58.7069807 54.49266814 61.86511359 57.84981512 65.09375 61.15625 C67.20775581 63.27621916 69.41379266 65.24025013 71.6875 67.1875 C77.86337913 72.53526313 83.49107942 78.44790982 89.22265625 84.26171875 C90.10824219 85.15503906 90.99382812 86.04835938 91.90625 86.96875 C92.69322266 87.76732422 93.48019531 88.56589844 94.29101562 89.38867188 C96.40268674 91.42421931 98.53542358 93.34493887 100.75585938 95.25585938 C105.3863222 99.27248563 109.69170507 103.58067142 114 107.9375 C114.77472656 108.71673828 115.54945313 109.49597656 116.34765625 110.29882812 C118.23410757 112.1969242 120.11816245 114.09733149 122 116 C122.00586624 115.13413773 122.01173248 114.26827545 122.01777649 113.37617493 C122.07571714 105.21009071 122.14780175 97.04427961 122.23571491 88.87846088 C122.28041317 84.68046812 122.31967037 80.48257227 122.34643555 76.28442383 C122.37247416 72.23179005 122.41288017 68.17952935 122.46318626 64.12712669 C122.47985128 62.58225335 122.49136785 61.03731548 122.49761391 59.49236488 C122.50725932 57.3256496 122.53532169 55.15988795 122.56762695 52.9934082 C122.57873001 51.76096878 122.58983307 50.52852936 122.60127258 49.25874329 C123.18773163 44.46569567 124.91040027 42.08857897 128.28030396 38.72183228 C131.60311798 36.61816763 133.60072189 36.48231697 137.51513672 36.45068359 C139.46273392 36.42208755 139.46273392 36.42208755 141.44967651 36.39291382 C142.85968128 36.39343676 144.2696861 36.3953113 145.6796875 36.3984375 C147.13551316 36.39065639 148.59133432 36.38198557 150.04714966 36.37246704 C153.09522226 36.3575664 156.14283149 36.3581064 159.19091797 36.36865234 C163.0840681 36.38023124 166.97531182 36.34640187 170.8681469 36.299963 C173.87438924 36.27039595 176.88017746 36.26875709 179.88653946 36.27498245 C181.32099301 36.27396031 182.75547341 36.26356495 184.189785 36.24335861 C196.76737751 36.08792212 196.76737751 36.08792212 201.37158203 39.79541016 C205.25613896 43.68525336 205.12477182 47.89271707 205.12457275 53.17991638 C205.12841728 55.08313156 205.12841728 55.08313156 205.13233948 57.02479553 C205.13026966 58.42855843 205.12814691 59.83232124 205.12597656 61.23608398 C205.12737171 62.71622776 205.12927128 64.19637113 205.13163757 65.67651367 C205.13613118 68.8625718 205.13799058 72.04861706 205.13809967 75.23467827 C205.13924051 80.27294553 205.15208183 85.3111396 205.16766357 90.34938049 C205.17152285 91.62509302 205.17152285 91.62509302 205.1754601 92.92657751 C205.18072648 94.66551914 205.18601196 96.40446071 205.19131613 98.14340222 C205.22642658 109.87173605 205.2529755 121.59997837 205.25048828 133.32836914 C205.24890032 141.24177701 205.26491841 149.15493492 205.30119491 157.06826264 C205.3196633 161.25531237 205.32899011 165.44194469 205.31671906 169.62902641 C205.30529041 173.56663916 205.31696607 177.50350396 205.34635353 181.44101715 C205.35299865 182.88537048 205.35111937 184.32979218 205.34005547 185.77411842 C205.32619666 187.7470848 205.34601671 189.72020181 205.36749268 191.69309998 C205.36895924 192.79682166 205.3704258 193.90054335 205.3719368 195.03771114 C206.20550215 198.9692603 207.99665813 200.41645465 211 203 C212.38288208 204.27460083 212.38288208 204.27460083 213.79370117 205.57495117 C214.28502029 206.02107254 214.77633942 206.46719391 215.282547 206.92683411 C223.56677801 214.45113683 231.44239526 222.35979013 239.3125 230.3125 C241.90973011 232.93662119 244.5094291 235.55823011 247.11328125 238.17578125 C247.72462921 238.79107697 248.33597717 239.40637268 248.96585083 240.04031372 C252.68104668 243.75499966 256.46890113 247.30341745 260.57104492 250.59448242 C262 252 262 252 262.95043945 254.05200195 C263.82814045 256.13475202 263.82814045 256.13475202 265.81544495 256.88479614 C268.37663409 258.19226972 269.98121878 259.74780264 272.00244141 261.79125977 C272.77649323 262.56869034 273.55054504 263.34612091 274.34805298 264.14710999 C275.58729019 265.40653664 275.58729019 265.40653664 276.8515625 266.69140625 C278.13442642 267.98207253 278.13442642 267.98207253 279.44320679 269.29881287 C282.17525338 272.04867898 284.90052506 274.80513354 287.625 277.5625 C290.35747547 280.32255927 293.0913786 283.08116509 295.82821655 285.8368988 C297.53150933 287.55248388 299.23212241 289.27073425 300.92984009 290.99183655 C301.69758759 291.76611496 302.46533508 292.54039337 303.25634766 293.33813477 C303.93267242 294.02271255 304.60899719 294.70729034 305.30581665 295.41261292 C306.92586429 297.08176656 306.92586429 297.08176656 309 298 C309 298.66 309 299.32 309 300 C309.55171875 300.226875 310.1034375 300.45375 310.671875 300.6875 C313.68692417 302.38725926 315.81230369 304.54804816 318.25 307 C319.14203125 307.886875 320.0340625 308.77375 320.953125 309.6875 C323 312 323 312 323 314 C323.66 314 324.32 314 325 314 C329.96930437 324.59976081 329.96930437 324.59976081 328 331 C325.86931538 334.82053793 323.82327734 337.79871911 320 340 C315.91830109 341.03299993 311.92398865 341.22336945 307.72558594 341.38330078 C307.01089142 341.41075378 306.2961969 341.43820679 305.55984497 341.4664917 C298.95594046 341.70672216 292.3498392 341.8500651 285.74264145 341.96293831 C281.31814905 342.04011165 276.89979627 342.14928896 272.47851562 342.33740234 C239.94286314 343.6868578 239.94286314 343.6868578 230.6675415 335.17990112 C228.07359757 332.30874094 225.79607611 329.32325158 223.60961914 326.13360596 C221.37213196 323.16773915 218.71009704 320.92953683 215.86712646 318.55960083 C213.40152094 316.50009362 211.16023685 314.25596515 208.90625 311.96875 C208.02066406 311.07542969 207.13507812 310.18210937 206.22265625 309.26171875 C204.40755208 307.42057292 202.59244792 305.57942708 200.77734375 303.73828125 C196.30687678 299.2287709 191.79673001 294.8817167 186.97460938 290.75195312 C182.32966656 286.63077241 178.06245791 282.09765344 173.7109375 277.671875 C170.29877071 274.22453123 166.88911679 270.84579646 163.19921875 267.6953125 C157.43508978 262.74076022 152.16179929 257.26743224 146.8125 251.875 C145.73526293 250.79273291 144.65779039 249.71070014 143.58007812 248.62890625 C141.59985746 246.64059746 139.62127988 244.65070634 137.64379883 242.65966797 C135.90443659 240.90986538 134.16255897 239.16255897 132.41796875 237.41796875 C130.22453338 235.22453338 128.0386133 233.02398167 125.85546875 230.8203125 C124.29954101 229.25514685 122.7435498 227.6900443 121.1875 226.125 C120.41857422 225.34769531 119.64964844 224.57039062 118.85742188 223.76953125 C115.42986746 220.32751458 112.00455418 216.94949337 108.30078125 213.8046875 C101.17704053 207.6789246 94.72940295 200.78118474 88.12695312 194.10644531 C86.29510246 192.25633381 84.46011693 190.40937088 82.625 188.5625 C82.0789209 188.00812256 81.5328418 187.45374512 80.97021484 186.88256836 C78.08408582 183.97859148 75.13151446 181.21004564 72.03393555 178.53173828 C68.1308434 175.15478182 64.46469016 171.5936348 60.83203125 167.9296875 C60.18932785 167.28556915 59.54662445 166.64145081 58.88444519 165.97781372 C56.85807085 163.94590995 54.83521951 161.91054143 52.8125 159.875 C51.44619838 158.50367223 50.0796637 157.13257663 48.71289062 155.76171875 C46.20534431 153.24605987 43.69913947 150.72908176 41.19458008 148.21044922 C40.65040436 147.66410828 40.10622864 147.11776733 39.54556274 146.55487061 C38.11047882 145.11114415 36.6813294 143.66152532 35.25268555 142.21142578 C32.9915242 139.90699784 32.9915242 139.90699784 30.1875 137.8125 C29.465625 137.214375 28.74375 136.61625 28 136 C28 135.34 28 134.68 28 134 C27.44731445 133.77328613 26.89462891 133.54657227 26.32519531 133.31298828 C23.31116616 131.6110302 21.23019787 129.45380482 18.796875 126.9921875 C18.3142218 126.50670441 17.8315686 126.02122131 17.33428955 125.52102661 C15.80141438 123.97700134 14.27565996 122.42615176 12.75 120.875 C11.70879639 119.82375991 10.66713459 118.77297343 9.625 117.72265625 C7.07800536 115.15366996 4.53734823 112.57851839 2 110 C-1.99085088 111.5983464 -4.63527077 114.39606945 -7.578125 117.41796875 C-8.37352692 118.22117302 -8.37352692 118.22117302 -9.18499756 119.04060364 C-10.87817056 120.75153752 -12.56452208 122.46898768 -14.25 124.1875 C-15.92198442 125.88734275 -17.59548911 127.58561302 -19.27215576 129.28083801 C-20.3125396 130.33321783 -21.35024809 131.38825291 -22.38458252 132.44657898 C-25.05492785 135.1527347 -27.7924117 137.70984129 -30.68066406 140.18286133 C-35.57614413 144.42210742 -40.11856465 149.00557642 -44.67591858 153.60075378 C-46.25573133 155.19353491 -47.83882586 156.78299157 -49.42272949 158.3717041 C-52.78466861 161.74497313 -56.14263819 165.12217602 -59.5 168.5 C-63.39597349 172.41971835 -67.29363538 176.33772742 -71.1955719 180.25151062 C-72.74181555 181.80415238 -74.2849738 183.35981403 -75.82800293 184.91564941 C-80.41188564 189.5231258 -85.05076537 193.98346827 -89.98718262 198.21203613 C-94.21674945 201.96911451 -98.14471853 206.04535744 -102.125 210.0625 C-103.0805937 211.02251375 -104.03649184 211.98222453 -104.99267578 212.94165039 C-107.9979755 215.95826369 -110.99929612 218.97881596 -114 222 C-117.48293011 225.50670151 -120.96756502 229.01167466 -124.45648193 232.51242065 C-125.83653133 233.8988534 -127.21347744 235.28837298 -128.59033203 236.67797852 C-133.00621219 241.1109293 -137.48314659 245.38008994 -142.23071289 249.45556641 C-144.78542959 251.68561165 -147.14886538 254.05462377 -149.53125 256.46875 C-150.01146606 256.95275269 -150.49168213 257.43675537 -150.9864502 257.9354248 C-152.49349407 259.45447309 -153.99718686 260.97676688 -155.5 262.5 C-166.53861776 273.68860869 -166.53861776 273.68860869 -170.9375 277.4375 C-176.78845306 282.43631426 -182.09586171 288.02888802 -187.5 293.5 C-189.67402741 295.70097021 -191.85095716 297.89898614 -194.03125 300.09375 C-194.55616531 300.62451645 -195.08108063 301.1552829 -195.62190247 301.70213318 C-198.35409068 304.44184026 -201.1381923 306.97639857 -204.16796875 309.37890625 C-207.17791054 311.8947589 -209.08170797 314.59538419 -211.1139679 317.94285583 C-217.28654345 327.90891109 -224.6943098 336.90083157 -236 341 C-248.57307477 343.847113 -262.01152088 343.21742338 -274.8125 342.9375 C-275.67166142 342.92010143 -276.53082283 342.90270287 -277.41601944 342.88477707 C-283.24599709 342.75681803 -289.06968425 342.55262099 -294.89453125 342.27734375 C-295.66303406 342.24160751 -296.43153687 342.20587128 -297.22332764 342.16905212 C-299.40534046 342.05873406 -301.58472311 341.9267481 -303.76489258 341.78491211 C-304.99726151 341.70712021 -306.22963043 341.62932831 -307.49934387 341.54917908 C-313.31980054 340.63607225 -318.22722069 338.71597414 -322 334 C-324.64666711 329.98436715 -325.56032909 326.92282818 -324.68432617 322.10961914 C-321.95149519 313.68493399 -314.74883645 307.33530473 -308.58740234 301.30615234 C-307.12723606 299.87718828 -305.67804929 298.43779579 -304.23046875 296.99609375 C-299.59515798 292.39994627 -294.87366007 287.96008377 -289.92138672 283.70751953 C-286.28312314 280.47422658 -282.90917226 276.97127011 -279.5 273.5 C-278.07549444 272.04954716 -276.64842536 270.60160735 -275.21875 269.15625 C-274.2896582 268.20975586 -274.2896582 268.20975586 -273.34179688 267.24414062 C-271.38174808 265.36582864 -269.38544963 263.59665286 -267.328125 261.828125 C-262.50601904 257.63497725 -258.02550224 253.13291206 -253.53125 248.59375 C-252.65150513 247.71021851 -251.77176025 246.82668701 -250.86535645 245.91638184 C-248.07445494 243.11334867 -245.28670768 240.30720084 -242.5 237.5 C-238.82601262 233.7989945 -235.14834398 230.10168178 -231.46875 226.40625 C-230.63831177 225.56751343 -229.80787354 224.72877686 -228.95227051 223.86462402 C-225.40671885 220.30432995 -221.85383242 216.81528818 -218.04101562 213.54101562 C-213.06549284 209.26159043 -208.49176897 204.59702452 -203.875 199.9375 C-202.9194063 198.97748625 -201.96350816 198.01777547 -201.00732422 197.05834961 C-198.0020245 194.04173631 -195.00070388 191.02118404 -192 188 C-188.51706989 184.49329849 -185.03243498 180.98832534 -181.54351807 177.48757935 C-180.16346867 176.1011466 -178.78652256 174.71162702 -177.40966797 173.32202148 C-172.98366943 168.8789132 -168.51318768 164.57575479 -163.72477722 160.52348328 C-160.10040137 157.32209824 -156.95159009 153.64157093 -153.72851562 150.04492188 C-150.00740792 145.96859784 -146.07844484 142.18439472 -142 138.46875 C-134.31064691 131.45771686 -127.00545261 124.0822623 -119.6875 116.6875 C-117.09026937 114.06337828 -114.48951624 111.44281765 -111.88671875 108.82421875 C-111.31257736 108.24177902 -110.73843597 107.65933929 -110.14689636 107.05924988 C-107.26122987 104.15650273 -104.32264578 101.381928 -101.21606445 98.71606445 C-96.11239382 94.3015925 -91.40400627 89.50942714 -86.65625 84.71875 C-85.67823581 83.73631622 -84.69991749 82.75418512 -83.72131348 81.77233887 C-80.64468605 78.68439429 -77.57203564 75.59251186 -74.5 72.5 C-70.93446097 68.91069537 -67.36722072 65.32311492 -63.79570007 61.73976135 C-62.38241371 60.32008843 -60.97222889 58.89733001 -59.56213379 57.4744873 C-55.11883249 53.01440261 -50.61953866 48.71680006 -45.84216309 44.61730957 C-42.80928276 41.95462112 -39.98809196 39.0919679 -37.15625 36.21875 C-36.54285767 35.60157104 -35.92946533 34.98439209 -35.29748535 34.34851074 C-33.36249942 32.40145962 -31.43082595 30.45117593 -29.5 28.5 C-14.63129443 13.47458536 -14.63129443 13.47458536 -8.52539062 8.29833984 C-6.5849858 6.64675968 -4.78251835 4.88215414 -3 3.0625 C-2.4225 2.47597656 -1.845 1.88945313 -1.25 1.28515625 C-0.8375 0.86105469 -0.425 0.43695313 0 0 Z " fill="#FEFDFA" transform="translate(408,97)"/>
<path d="M0 0 C11.88 0 23.76 0 36 0 C36.33 71.28 36.66 142.56 37 216 C249.355 215.505 249.355 215.505 466 215 C466.33 144.05 466.66 73.1 467 0 C478.88 0 490.76 0 503 0 C503.09045657 30.05619489 503.16205522 60.11237473 503.20426132 90.16867542 C503.20926405 93.71840754 503.21444135 97.26813939 503.21972656 100.81787109 C503.2207758 101.52454831 503.22182505 102.23122553 503.22290608 102.95931721 C503.24030359 114.39647402 503.27183765 125.83355028 503.30861118 137.27065933 C503.34603887 149.00926175 503.36823971 160.74782203 503.37635398 172.48648167 C503.38157001 179.07864343 503.39383489 185.67062258 503.42292023 192.26272583 C503.45007641 198.46788404 503.45844442 204.67278445 503.45243073 210.87799644 C503.45353085 213.1548064 503.46148326 215.43162501 503.4768219 217.70838356 C503.4967524 220.81941405 503.4919274 223.92947393 503.48101807 227.04052734 C503.49266943 227.93937936 503.5043208 228.83823137 503.51632524 229.76432133 C503.45180394 236.58161288 501.69801621 241.74225548 497.32421875 247.0234375 C496.78410156 247.46945312 496.24398438 247.91546875 495.6875 248.375 C495.15511719 248.83648438 494.62273437 249.29796875 494.07421875 249.7734375 C488.71686158 252.94144155 482.94166054 253.29072159 476.86490631 253.25168228 C476.07045607 253.25458916 475.27600582 253.25749604 474.45748132 253.26049101 C471.79697543 253.26778637 469.13670048 253.2608498 466.47619629 253.25396729 C464.54886078 253.2562719 462.62152615 253.25944842 460.69419336 253.26342177 C455.39896426 253.27177833 450.10380716 253.26764056 444.80857778 253.26144934 C439.0975338 253.25692939 433.38650232 253.26390634 427.67546082 253.26940918 C416.48789227 253.2783097 405.30035053 253.27637823 394.11278093 253.2705839 C385.0216623 253.26607001 375.93055119 253.26545332 366.83943176 253.26763153 C365.54630755 253.267938 364.25318334 253.26824446 362.92087355 253.26856022 C360.29404541 253.26919966 357.66721726 253.26984808 355.04038912 253.2705054 C331.10220878 253.27604793 307.16404293 253.27029681 283.22586492 253.2598202 C261.37306227 253.25032899 239.52028292 253.25117825 217.66748047 253.26074219 C193.11575539 253.2714514 168.56404441 253.27566128 144.01231718 253.26951766 C141.39506753 253.26888055 138.77781789 253.26825181 136.16056824 253.26763153 C134.87277864 253.26732298 133.58498905 253.26701443 132.25817552 253.26669653 C123.17633035 253.26496855 114.09449343 253.26788692 105.01264954 253.27259064 C93.9472974 253.2781956 82.88197364 253.2766911 71.81662476 253.26602915 C66.16924993 253.26076728 60.52192245 253.2587245 54.87454796 253.26532745 C49.7068134 253.2712783 44.53917017 253.26802603 39.37144393 253.25737235 C37.50007489 253.25513466 35.62869817 253.25628285 33.75733405 253.26112393 C31.21647712 253.2671937 28.67593418 253.26097918 26.13509369 253.25168228 C25.04183475 253.25870578 25.04183475 253.25870578 23.92648977 253.26587117 C17.36081025 253.2177627 11.39201512 252.21219487 6.40731925 247.65952337 C0.8876215 241.15064671 -0.73745479 234.15181753 -0.60127258 225.83798218 C-0.60554471 224.86571957 -0.60981683 223.89345697 -0.61421841 222.89173186 C-0.62239971 219.66090121 -0.59504336 216.43139294 -0.56762695 213.20068359 C-0.56621544 210.8741153 -0.56701048 208.54754478 -0.56983948 206.22097778 C-0.57127096 199.92405361 -0.54192368 193.62760801 -0.50696969 187.33079481 C-0.47566205 180.74314789 -0.47277195 174.15548938 -0.46684265 167.56777954 C-0.45391259 156.51694467 -0.42187291 145.46627697 -0.37719727 134.41552734 C-0.33124569 123.03728098 -0.29588128 111.65908224 -0.2746582 100.28076172 C-0.27334459 99.578458 -0.27203097 98.87615428 -0.27067754 98.15256862 C-0.26415198 94.62903445 -0.25783353 91.10549994 -0.25161803 87.58196521 C-0.19985217 58.38786 -0.11046204 29.1939404 0 0 Z " fill="#FEFDFA" transform="translate(158,464)"/>
<path d="M0 0 C29.37 0 58.74 0 89 0 C89.04125 14.64375 89.0825 29.2875 89.125 44.375 C89.14320801 49.00321777 89.16141602 53.63143555 89.18017578 58.39990234 C89.18920898 64.0402832 89.18920898 64.0402832 89.19088745 66.67861938 C89.19396384 68.52604128 89.20100865 70.3734591 89.21115112 72.22085571 C89.22572786 75.01498419 89.22781412 77.80886671 89.22705078 80.60302734 C89.234247 81.42961538 89.24144321 82.25620342 89.2488575 83.10783958 C89.22805267 88.77194733 89.22805267 88.77194733 87 91 C84.22858968 91.1881119 81.55832488 91.2517407 78.78662109 91.22705078 C77.49271926 91.22741239 77.49271926 91.22741239 76.17267799 91.2277813 C73.37282723 91.22628524 70.5732408 91.21103918 67.7734375 91.1953125 C66.04793425 91.19237297 64.32242922 91.19033197 62.59692383 91.18920898 C56.18958874 91.1787112 49.78229179 91.15078892 43.375 91.125 C29.06125 91.08375 14.7475 91.0425 0 91 C0 60.97 0 30.94 0 0 Z " fill="#FEFDFA" transform="translate(421,510)"/>
<path d="M0 0 C29.04 0 58.08 0 88 0 C88 30.03 88 60.06 88 91 C66.4984375 91.0309375 66.4984375 91.0309375 44.5625 91.0625 C40.02959229 91.071604 35.49668457 91.08070801 30.82641602 91.09008789 C25.30847168 91.09460449 25.30847168 91.09460449 22.72862244 91.09544373 C20.91949722 91.09698341 19.11037305 91.10050882 17.30125427 91.10557556 C14.56743577 91.112852 11.83368019 91.11390745 9.09985352 91.11352539 C8.28840409 91.1171235 7.47695467 91.12072161 6.64091587 91.12442875 C1.11402634 91.11402634 1.11402634 91.11402634 0 90 C-0.09519368 87.2001028 -0.12553944 84.42493826 -0.11352539 81.62475586 C-0.11367142 80.74678848 -0.11381744 79.86882111 -0.1139679 78.96424866 C-0.11326844 76.04775565 -0.10547455 73.13132567 -0.09765625 70.21484375 C-0.09579218 68.19845108 -0.09436823 66.18205796 -0.09336853 64.16566467 C-0.08954244 58.84734862 -0.07971139 53.5290597 -0.06866455 48.21075439 C-0.05665825 41.83564566 -0.05204862 35.46052787 -0.04621124 29.08541107 C-0.03649968 19.39025516 -0.01734375 9.69515881 0 0 Z " fill="#FEFDFB" transform="translate(310,510)"/>
<path d="M0 0 C14.31375 -0.04125 28.6275 -0.0825 43.375 -0.125 C47.89880371 -0.14320801 52.42260742 -0.16141602 57.08349609 -0.18017578 C62.59692383 -0.18920898 62.59692383 -0.18920898 65.17593384 -0.19088745 C66.98168929 -0.1939637 68.78744058 -0.20100822 70.59317017 -0.21115112 C73.32439337 -0.22572899 76.05536498 -0.22781408 78.78662109 -0.22705078 C79.99839807 -0.23784511 79.99839807 -0.23784511 81.23465538 -0.2488575 C86.77194733 -0.22805267 86.77194733 -0.22805267 89 2 C89.1881119 4.77141032 89.2517407 7.44167512 89.22705078 10.21337891 C89.22729185 11.07598013 89.22753292 11.93858135 89.2277813 12.82732201 C89.22628524 15.62717277 89.21103918 18.4267592 89.1953125 21.2265625 C89.19237297 22.95206575 89.19033197 24.67757078 89.18920898 26.40307617 C89.1787112 32.81041126 89.15078892 39.21770821 89.125 45.625 C89.08375 59.93875 89.0425 74.2525 89 89 C59.63 89 30.26 89 0 89 C0 59.63 0 30.26 0 0 Z " fill="#FEFDFB" transform="translate(421,397)"/>
<path d="M0 0 C0.79848295 0.00719622 1.5969659 0.01439243 2.41964531 0.02180672 C3.27233435 0.02156565 4.12502338 0.02132458 5.00355148 0.0210762 C7.77109807 0.0225722 10.53837721 0.03781799 13.30587578 0.053545 C15.01152225 0.05648454 16.71717051 0.05852553 18.42281914 0.05964851 C24.75626132 0.07014609 31.08966491 0.09806837 37.42306328 0.1238575 C51.57181328 0.1651075 65.72056328 0.2063575 80.29806328 0.2488575 C80.29806328 29.6188575 80.29806328 58.9888575 80.29806328 89.2488575 C51.25806328 89.2488575 22.21806328 89.2488575 -7.70193672 89.2488575 C-7.74318672 74.9351075 -7.78443672 60.6213575 -7.82693672 45.8738575 C-7.84514473 41.35005379 -7.86335274 36.82625008 -7.8821125 32.1653614 C-7.89114571 26.65193367 -7.89114571 26.65193367 -7.89282417 24.07292366 C-7.89590042 22.2671682 -7.90294494 20.46141692 -7.91308784 18.65568733 C-7.92766571 15.92446413 -7.9297508 13.19349252 -7.9289875 10.4622364 C-7.93618372 9.65438509 -7.94337994 8.84653378 -7.95079422 8.01420212 C-7.92533312 1.2376234 -6.79041381 0.02580862 0 0 Z " fill="#FEFDFB" transform="translate(317.70193672180176,396.75114250183105)"/>
<path d="M0 0 C6.49555581 4.50881167 11.97776434 9.73584404 17.5 15.375 C18.32242188 16.20644531 19.14484375 17.03789062 19.9921875 17.89453125 C21.99947551 19.92515982 24.00190534 21.96033167 26 24 C25.34 24.66 24.68 25.32 24 26 C23.5875 25.54625 23.175 25.0925 22.75 24.625 C21.09278133 22.9013628 21.09278133 22.9013628 18.9375 22.125 C17 21 17 21 16.1796875 18.74609375 C14.72836087 15.36767447 12.82043682 13.49148819 10.1875 10.9375 C9.33542969 10.10089844 8.48335937 9.26429688 7.60546875 8.40234375 C5.02985834 5.95796549 5.02985834 5.95796549 2.17578125 3.81640625 C1.45777344 3.21699219 0.73976563 2.61757813 0 2 C0 1.34 0 0.68 0 0 Z " fill="#2C6492" transform="translate(514,309)"/>
<path d="M0 0 C0.66 0.33 1.32 0.66 2 1 C1.29875 1.680625 0.5975 2.36125 -0.125 3.0625 C-2.19100793 5.11686845 -4.07797582 7.25777691 -5.9375 9.5 C-8.70058057 12.77318775 -11.67143912 15.30882312 -15 18 C-15.86625 18.886875 -16.7325 19.77375 -17.625 20.6875 C-19.77385755 22.77980867 -21.33534757 23.76886312 -24 25 C-19.18132753 19.19108254 -13.98743592 13.86934448 -8.625 8.5625 C-7.79355469 7.73556641 -6.96210937 6.90863281 -6.10546875 6.05664062 C-4.0725896 4.03544469 -2.03740037 2.01663665 0 0 Z " fill="#EFF5F8" transform="translate(112,386)"/>
<path d="M0 0 C0.99 0.99 1.98 1.98 3 3 C2.04578192 4.14926266 1.08647955 5.29430541 0.125 6.4375 C-0.40867187 7.07558594 -0.94234375 7.71367187 -1.4921875 8.37109375 C-3 10 -3 10 -5 11 C-5 9.35 -5 7.7 -5 6 C-4.01 5.67 -3.02 5.34 -2 5 C-0.78130071 2.49552484 -0.78130071 2.49552484 0 0 Z " fill="#135E90" transform="translate(93,399)"/>
<path d="M0 0 C2.31 0 4.62 0 7 0 C6.65120368 3.25543229 5.97866739 4.01873107 3.4375 6.25 C2.633125 6.8275 1.82875 7.405 1 8 C0.67 6.35 0.34 4.7 0 3 C0.66 3 1.32 3 2 3 C2 2.34 2 1.68 2 1 C1.34 0.67 0.68 0.34 0 0 Z " fill="#186493" transform="translate(338,156)"/>
<path d="M0 0 C0.66 0.33 1.32 0.66 2 1 C-1.96 4.96 -5.92 8.92 -10 13 C-10.66 12.67 -11.32 12.34 -12 12 C-11.25 9.5625 -11.25 9.5625 -10 7 C-8.66666667 6.66666667 -7.33333333 6.33333333 -6 6 C-4.25816939 4.61829272 -4.25816939 4.61829272 -2.75 2.9375 C-2.22921875 2.38964844 -1.7084375 1.84179688 -1.171875 1.27734375 C-0.78515625 0.85582031 -0.3984375 0.43429688 0 0 Z " fill="#0A548A" transform="translate(371,131)"/>
<path d="M0 0 C4.2742558 1.5830577 6.26531794 4.50568404 9 8 C5.84915995 8 4.66128684 7.54526333 2 6 C1.34 5.34 0.68 4.68 0 4 C0 2.68 0 1.36 0 0 Z " fill="#2D6F99" transform="translate(531,326)"/>
<path d="M0 0 C2.31 0 4.62 0 7 0 C6.04578192 1.14926266 5.08647955 2.29430541 4.125 3.4375 C3.59132813 4.07558594 3.05765625 4.71367188 2.5078125 5.37109375 C1 7 1 7 -1 8 C-0.67 5.36 -0.34 2.72 0 0 Z " fill="#105C8E" transform="translate(378,119)"/>
<path d="M0 0 C0 2.95274099 -0.43891831 4.49058403 -1.5 7.1875 C-1.7784375 7.90292969 -2.056875 8.61835938 -2.34375 9.35546875 C-2.5603125 9.89816406 -2.776875 10.44085938 -3 11 C-5 9.625 -5 9.625 -7 8 C-7 7.34 -7 6.68 -7 6 C-5.46875 4.4921875 -5.46875 4.4921875 -3.5 2.875 C-2.8503125 2.33617187 -2.200625 1.79734375 -1.53125 1.2421875 C-1.0259375 0.83226562 -0.520625 0.42234375 0 0 Z " fill="#125C8D" transform="translate(277,335)"/>
<path d="M0 0 C0.66 0 1.32 0 2 0 C2.10183594 0.59296875 2.20367188 1.1859375 2.30859375 1.796875 C3.11355652 4.36184111 4.11566902 5.42743483 6.0625 7.25 C6.61035156 7.77078125 7.15820312 8.2915625 7.72265625 8.828125 C8.14417969 9.21484375 8.56570313 9.6015625 9 10 C8.67 10.66 8.34 11.32 8 12 C4.7 8.7 1.4 5.4 -2 2 C-1.34 1.34 -0.68 0.68 0 0 Z " fill="#095187" transform="translate(720,395)"/>
<path d="M0 0 C1 2 1 2 0.5 4.5 C-1 7 -1 7 -4.625 8.3125 C-5.73875 8.539375 -6.8525 8.76625 -8 9 C-7.04270084 7.87411986 -6.08412105 6.7493285 -5.125 5.625 C-4.59132813 4.99851563 -4.05765625 4.37203125 -3.5078125 3.7265625 C-2.38567993 2.44163349 -1.20628025 1.20628025 0 0 Z " fill="#105C8C" transform="translate(393,221)"/>
<path d="M0 0 C1.9375 1.125 1.9375 1.125 4 3 C4.75 6.1875 4.75 6.1875 5 9 C2.69 7.02 0.38 5.04 -2 3 C-1.34 2.67 -0.68 2.34 0 2 C0 1.34 0 0.68 0 0 Z " fill="#145D8F" transform="translate(484,164)"/>
<path d="M0 0 C1.65 0 3.3 0 5 0 C6.0625 1.8125 6.0625 1.8125 7 4 C6.67 4.99 6.34 5.98 6 7 C4.02 4.69 2.04 2.38 0 0 Z " fill="#115D8E" transform="translate(623,303)"/>
<path d="M0 0 C1.32 0.66 2.64 1.32 4 2 C1.03 4.475 1.03 4.475 -2 7 C-2 6.34 -2 5.68 -2 5 C-2.66 5 -3.32 5 -4 5 C-3.67 4.01 -3.34 3.02 -3 2 C-3 2.66 -3 3.32 -3 4 C-2.01 3.34 -1.02 2.68 0 2 C0 1.34 0 0.68 0 0 Z " fill="#125B8C" transform="translate(182,313)"/>
<path d="M0 0 C1.32 0.66 2.64 1.32 4 2 C2.02 3.98 0.04 5.96 -2 8 C-2.66 7.67 -3.32 7.34 -4 7 C-3.525625 6.401875 -3.05125 5.80375 -2.5625 5.1875 C-0.83534256 2.99617076 -0.83534256 2.99617076 0 0 Z " fill="#135C8E" transform="translate(229,267)"/>
<path d="M0 0 C0.99 1.32 1.98 2.64 3 4 C1.68 4.99 0.36 5.98 -1 7 C-1.33 5.02 -1.66 3.04 -2 1 C-1.34 0.67 -0.68 0.34 0 0 Z " fill="#186491" transform="translate(301,195)"/>
<path d="M0 0 C0.6875 1.8125 0.6875 1.8125 1 4 C-0.4375 5.75 -0.4375 5.75 -2 7 C-2.99 6.34 -3.98 5.68 -5 5 C-3.35 3.35 -1.7 1.7 0 0 Z " fill="#10598B" transform="translate(353,260)"/>
<path d="M0 0 C0.99 0 1.98 0 3 0 C3.33 0.99 3.66 1.98 4 3 C2.68 3.99 1.36 4.98 0 6 C-1.125 2.25 -1.125 2.25 0 0 Z " fill="#136191" transform="translate(235,260)"/>
<path d="M0 0 C0.99 0.66 1.98 1.32 3 2 C1.35 3.32 -0.3 4.64 -2 6 C-2.33 4.68 -2.66 3.36 -3 2 C-2.01 1.34 -1.02 0.68 0 0 Z " fill="#145E8E" transform="translate(252,245)"/>
<path d="M0 0 C0.99 0.33 1.98 0.66 3 1 C2.6875 2.875 2.6875 2.875 2 5 C1.01 5.66 0.02 6.32 -1 7 C-0.67 4.69 -0.34 2.38 0 0 Z " fill="#2A709B" transform="translate(309,188)"/>
</svg>
